<svg xmlns="http://www.w3.org/2000/svg" version="1.1" xmlns:xlink="http://www.w3.org/1999/xlink" xmlns:svgjs="http://svgjs.dev/svgjs" width="100%" height="100%" viewBox="0 0 1000 600"><rect width="1000" height="600" x="0" y="0" fill="#0a192f"/><g><circle r="166.66666666666666" cx="373.8997141520182" cy="396.1220390209576" fill="#495670" transform="matrix(0.6031851961043923,0,0,0.6031851961043923,0,61.06501670733911)"/><path d="M385.32187477551184 471.12205503213534L322.38774112222114 471.12205503213534Q321.51947762272283 471.12205503213534 321.51947762272283 469.02624658507045L321.51947762272283 469.02624658507045L321.51947762272283 467.7388213961592Q321.51947762272283 466.90049801733323 322.5973219669276 466.90049801733323Q323.64522619046005 466.90049801733323 325.6811543961802 466.2717554832138Q327.7470227225727 465.6430129490943 328.79492694610514 465.43343210438786L328.79492694610514 465.43343210438786Q339.5434302674807 463.00828232992706 339.5434302674807 453.2178628700669L339.5434302674807 453.2178628700669L339.5434302674807 342.08013493428416Q339.5434302674807 332.37953583644105 335.9506157867981 329.71486509660144Q332.3877414267878 327.02025423608944 323.0164836563406 327.02025423608944L323.0164836563406 327.02025423608944L318.2560044694361 327.02025423608944Q316.07037566035416 327.02025423608944 316.07037566035416 324.50528409961163L316.07037566035416 324.50528409961163Q316.07037566035416 323.0382181866662 317.41768109061013 322.70887685927033L317.41768109061013 322.70887685927033L318.16618410741904 322.70887685927033L377.20810207330356 321.1220504636355L387.8368449119897 321.1220504636355Q406.69912093557355 322.3795355318744 419.21409137661806 334.7148652488848Q431.7290618176625 347.0202548452228 431.7290618176625 364.23582423182705Q431.7290618176625 381.4513936184313 419.4236722213245 395.4334299724212L419.4236722213245 395.4334299724212Q414.0643906209729 401.6609750722711 407.327863469693 405.4933105183326Q400.5913363184131 409.3256459643941 394.06439001183963 409.4454064470835L394.06439001183963 409.4454064470835L362.4775627025048 408.1879213788446L361.63923932367885 408.1879213788446Q360.052412928044 408.1879213788446 360.052412928044 409.65498729179L360.052412928044 409.65498729179L360.052412928044 452.91846166334335Q360.052412928044 458.6969049531079 363.2260657193137 461.4513960549646Q366.369778389911 464.17594703614895 376.57935953918417 465.7627734317838L376.57935953918417 465.7627734317838Q377.9566050901125 465.97235427649025 381.01049739869273 466.4513962072479Q384.06438970727294 466.90049801733323 385.1122939308054 466.90049801733323Q386.1601981543378 466.90049801733323 386.1601981543378 467.7388213961592L386.1601981543378 467.7388213961592L386.1601981543378 470.28373165330936Q386.1601981543378 471.12205503213534 385.32187477551184 471.12205503213534L385.32187477551184 471.12205503213534ZM368.5853473196653 326.4513919433147Q367.3278622514264 326.51127218465945 365.8907364591533 326.5412123053318Q364.4835507875526 326.6010925466765 362.26798185779836 326.6609727880212Q360.052412928044 326.7208530293659 360.052412928044 328.3974997870178L360.052412928044 328.3974997870178L360.052412928044 396.2717533512472L360.26199377275054 399.44540614251684Q360.5913351001464 401.6609750722711 362.26798185779836 401.7507954342882L362.26798185779836 401.7507954342882L373.01648517917386 402.37953796840765Q389.96259347972693 402.37953796840765 400.3218752323619 391.032232233585Q410.6811569849968 379.65498637809003 410.6811569849968 362.43941699148576Q410.6811569849968 345.2238476048815 400.6212764390854 335.76276947241723Q390.5913360138464 326.2717512192806 373.85480855799983 326.2717512192806L373.85480855799983 326.2717512192806Q372.35780252438207 326.2717512192806 371.10031745614316 326.33163146062526Q369.84283238790425 326.39151170197 368.5853473196653 326.4513919433147Z " fill="#64ffda" transform="matrix(0.6031851961043923,0,0,0.6031851961043923,0,61.06501670733911)"/><path d="M691.8225862769876 468.24421758021583L630.0958806692406 468.24421758021583Q629.244275311189 468.24421758021583 629.244275311189 466.188618440091L629.244275311189 466.188618440091L629.244275311189 464.92589325401434Q629.244275311189 464.10365359796447 630.3014405832531 464.10365359796447Q631.3292401533155 464.10365359796447 633.3261078894367 463.486973855927Q635.3523413275597 462.8702941138896 636.380140897622 462.6647341998771L636.380140897622 462.6647341998771Q646.9224279162621 460.2861123377327 646.9224279162621 450.68352778314977L646.9224279162621 450.68352778314977L646.9224279162621 341.6780419525326Q646.9224279162621 332.1635545039551 643.3985436760481 329.55000702579645Q639.904025137836 326.907093845636 630.7125604112781 326.907093845636L630.7125604112781 326.907093845636L626.0434137929946 326.907093845636Q623.8997175468645 326.907093845636 623.8997175468645 324.44037487748625L623.8997175468645 324.44037487748625Q623.8997175468645 323.0014554793989 625.2211741369447 322.6784327573793L625.2211741369447 322.6784327573793L625.9553166869892 322.6784327573793L683.8644810345046 321.1220505512848L694.2893052451374 321.1220505512848Q712.7896975062605 322.3554100353597 725.0645609430056 334.45407926009415Q737.3394243797508 346.5233827828268 737.3394243797508 363.40866143385176Q737.3394243797508 380.2939400848768 725.2701208570181 394.0077229197093L725.2701208570181 394.0077229197093Q720.0136601986991 400.1157889360801 713.4063772482979 403.87459879230823Q706.7990942978969 407.63340864853643 700.3973712615083 407.75087145654356L700.3973712615083 407.75087145654356L669.4165556496276 406.5175119724687L668.5943159935777 406.5175119724687Q667.0379337874832 406.5175119724687 667.0379337874832 407.95643137055606L667.0379337874832 407.95643137055606L667.0379337874832 450.38987076313197Q667.0379337874832 456.057451249476 670.1506981996721 458.75909583364Q673.2340969098593 461.43137471580224 683.2478012924672 462.9877569218967L683.2478012924672 462.9877569218967Q684.5986235845492 463.1933168359092 687.5939251887311 463.6631680679377Q690.5892267929129 464.10365359796447 691.6170263629753 464.10365359796447Q692.6448259330376 464.10365359796447 692.6448259330376 464.92589325401434L692.6448259330376 464.92589325401434L692.6448259330376 467.42197792416584Q692.6448259330376 468.24421758021583 691.8225862769876 468.24421758021583L691.8225862769876 468.24421758021583ZM675.4071588579912 326.34914550760215Q674.1737993739163 326.4078769116057 672.7642456778308 326.43724261360745Q671.384057683747 326.495974017611 669.210995735615 326.5547054216146Q667.0379337874832 326.6134368256182 667.0379337874832 328.257916137718L667.0379337874832 328.257916137718L667.0379337874832 394.8299625757592L667.2434937014956 397.94272698794816Q667.5665164235153 400.1157889360801 669.210995735615 400.2038860420854L669.210995735615 400.2038860420854L679.7532827542551 400.8205657841229Q696.374270087264 400.8205657841229 706.5348029798807 389.69096472544726Q716.6953358724976 378.53199796476986 716.6953358724976 361.6467193137448Q716.6953358724976 344.76144066271985 706.8284599998987 335.4818788301565Q696.9909498293015 326.1729512955914 680.575522410305 326.1729512955914L680.575522410305 326.1729512955914Q679.1072373102159 326.1729512955914 677.873877826141 326.23168269959496Q676.6405183420661 326.29041410359855 675.4071588579912 326.34914550760215ZM814.7767805584516 394.2132828337218L814.7767805584516 394.2132828337218Q813.5434210743767 394.0077229197093 811.1647992122323 392.89182624364156L811.1647992122323 392.89182624364156Q802.5900142277118 388.9568221754027 797.7446733974176 388.9568221754027Q792.8993325671235 388.9568221754027 787.5841405048009 395.0061567877699Q782.2689484424783 401.02612569813533 782.2689484424783 405.90083223043126L782.2689484424783 405.90083223043126L782.2689484424783 452.56293271126384Q782.2689484424783 460.2861123377327 791.2254875530219 462.8702941138896L791.2254875530219 462.8702941138896Q795.1604916212608 463.89809368395197 798.5669130534676 464.3679449159805Q801.9733344856744 464.83779614800903 802.9424026517332 465.2489159760339Q803.9408365197938 465.6600358040589 803.9408365197938 466.864029586132Q803.9408365197938 468.03865766620333 802.9130369497313 468.24421758021583L802.9130369497313 468.24421758021583L751.1706700225903 468.24421758021583Q750.142870452528 468.03865766620333 750.142870452528 466.80529818212847L750.142870452528 466.80529818212847Q750.142870452528 464.92589325401434 754.9882112828221 464.3092135119769L754.9882112828221 464.3092135119769Q766.1471780434996 462.6647341998771 766.1471780434996 452.56293271126384L766.1471780434996 452.56293271126384L766.1471780434996 397.94272698794816Q766.1471780434996 393.59660309168436 761.3899343192107 391.95212377958455L761.3899343192107 391.95212377958455Q759.334335179086 391.21798122954 756.9557133169416 390.7774956995132Q754.5770914547971 390.3076444674847 753.1969034607133 389.8965246394597Q751.7873497646278 389.48540481143476 751.4349613406065 389.1036506854116Q751.082572916585 388.7512622613902 751.082572916585 387.5766341813189Q751.082572916585 386.3726403992458 752.6389551226795 385.5504007431959L752.6389551226795 385.5504007431959L778.9506241162768 373.1580744984436Q780.1839836003517 372.5413947564062 780.5070063223712 372.5413947564062L780.5070063223712 372.5413947564062Q782.2689484424783 372.5413947564062 782.2689484424783 375.0081137245559L782.2689484424783 375.0081137245559L782.2689484424783 391.74656386557206Q782.2689484424783 392.9799233496469 782.8856281845157 392.9799233496469L782.8856281845157 392.9799233496469Q783.7078678405655 392.9799233496469 787.1142892727723 388.13458251935276L787.1142892727723 388.13458251935276Q796.9224337413677 374.3914339825185 803.3241567777563 374.3914339825185L803.3241567777563 374.3914339825185Q806.9361381239756 374.3914339825185 814.4243921344301 377.298638480695Q821.9126461448848 380.1764772768697 821.9126461448848 382.1439793109891L821.9126461448848 382.1439793109891Q821.9126461448848 384.5226011731335 819.5340242827403 389.36794200342763Q817.155402420596 394.2132828337218 814.7767805584516 394.2132828337218ZM905.634262551967 413.8295717709126L845.7575961703322 413.8295717709126Q843.9956540502253 413.8295717709126 843.9956540502253 421.3765571853707L843.9956540502253 421.3765571853707Q843.9956540502253 437.38086477634226 853.4807757968011 448.21680881500004Q862.9952632453786 459.0527528536578 877.0908002062343 459.0527528536578Q891.1863371670901 459.0527528536578 904.1953431538797 446.86598652291804L904.1953431538797 446.86598652291804Q904.4009030678922 446.6604266089056 904.69456008791 446.6604266089056L904.69456008791 446.6604266089056L905.223142723942 446.6604266089056Q905.8398224659795 446.6604266089056 906.3977708040134 447.6588604769662Q906.9557191420472 448.62792864302503 907.4843017780794 448.9509513650446L907.4843017780794 448.9509513650446Q895.503095361352 463.486973855927 879.293227856368 469.0664572362657L879.293227856368 469.0664572362657Q873.7137444760293 471.03395927038514 866.6953416976032 471.03395927038514Q859.6769389191771 471.03395927038514 852.4529762267387 467.1576866061498Q845.2290135343002 463.28141394191454 840.0606499819864 456.99715371353307L840.0606499819864 456.99715371353307Q829.1366088373233 443.87068491873623 829.1366088373233 424.31312738554897Q829.1366088373233 404.75556985236176 841.059083850047 388.63379945338306Q852.9815588627707 372.5413947564062 873.8312072840364 372.5413947564062L873.8312072840364 372.5413947564062Q888.8077153049456 372.5413947564062 898.2928370515214 385.9027891672173Q907.807324500099 399.29354928003016 907.807324500099 409.3953507686434L907.807324500099 409.3953507686434Q907.807324500099 413.8295717709126 905.634262551967 413.8295717709126L905.634262551967 413.8295717709126ZM846.8734928464 402.69997071223696L846.8734928464 403.93333019631183Q846.8734928464 405.90083223043126 848.752897774514 405.90083223043126L848.752897774514 405.90083223043126L887.6624529268761 405.90083223043126Q890.3347318090383 405.90083223043126 890.3347318090383 402.69997071223696L890.3347318090383 402.69997071223696Q890.3347318090383 395.24108240378416 883.6980831566353 387.45917137331173Q877.0320688022308 379.67726034283936 869.0739635597477 379.67726034283936L869.0739635597477 379.67726034283936Q861.3507839332788 379.67726034283936 854.9784265988919 386.6956631212654Q848.635434966507 393.7140658996915 846.8734928464 402.69997071223696L846.8734928464 402.69997071223696ZM1061.2137517574115 435.7363854642424L1061.2137517574115 435.7363854642424L1061.008191843399 413.9470345789197Q1061.008191843399 400.6150058701104 1058.71766708726 395.24108240378416Q1056.4565080331226 389.8965246394597 1052.9619894949105 387.13614865129216Q1049.4381052546964 384.4051383651264 1043.5062334503364 384.4051383651264Q1037.5743616459763 384.4051383651264 1018.3691925368106 393.7140658996915L1018.3691925368106 393.7140658996915Q1015.7850107606538 395.24108240378416 1015.6675479526465 396.59190469586616L1015.6675479526465 396.59190469586616L1015.6675479526465 452.1518128832389Q1015.6675479526465 462.57663709387174 1026.8265147133238 464.10365359796447L1026.8265147133238 464.10365359796447Q1031.6718555436182 464.83779614800903 1031.6718555436182 466.42354405610524Q1031.6718555436182 468.03865766620333 1030.6440559735556 468.24421758021583L1030.6440559735556 468.24421758021583L984.5986352347605 468.24421758021583Q983.5708356646982 468.03865766620333 983.5708356646982 466.80529818212847L983.5708356646982 466.80529818212847Q983.5708356646982 464.83779614800903 988.4161764949923 464.10365359796447L988.4161764949923 464.10365359796447Q999.5751432556697 462.57663709387174 999.5751432556697 452.1518128832389L999.5751432556697 452.1518128832389L999.5751432556697 400.7324686781175Q999.5751432556697 384.5226011731335 979.547734490454 384.5226011731335L979.547734490454 384.5226011731335Q972.2063089900082 384.5226011731335 959.1973030032185 393.1854832636594L959.1973030032185 393.1854832636594Q955.9083443790189 395.3585452117913 954.3519621729243 397.2085844379036L954.3519621729243 397.2085844379036L954.3519621729243 452.1518128832389Q954.3519621729243 462.57663709387174 965.5109289336018 464.10365359796447L965.5109289336018 464.10365359796447Q970.356269763896 464.83779614800903 970.356269763896 466.42354405610524Q970.356269763896 468.03865766620333 969.3284701938336 468.24421758021583L969.3284701938336 468.24421758021583L923.2830494550384 468.24421758021583Q922.255249884976 468.03865766620333 922.255249884976 466.80529818212847L922.255249884976 466.80529818212847Q922.255249884976 464.83779614800903 927.1005907152702 464.10365359796447L927.1005907152702 464.10365359796447Q938.2595574759475 462.57663709387174 938.2595574759475 452.3573727972514L938.2595574759475 452.3573727972514L938.2595574759475 392.89182624364156Q938.2595574759475 388.54570234737776 933.5023137516588 386.9012230352779L933.5023137516588 386.9012230352779Q931.446714611534 386.1670804852333 929.0680927493896 385.6972292532048Q926.6894708872452 385.22737802117626 925.2799171911596 384.8162581931513Q923.8997291970758 384.4051383651264 923.5473407730544 384.052749941105Q923.1655866470313 383.7003615170836 923.1655866470313 382.4963677350105Q923.1655866470313 381.3217396549392 924.7219688531258 380.4994999988893L924.7219688531258 380.4994999988893L951.0630035487247 368.107173754137Q952.2963630327996 367.4904940120996 952.5900200528175 367.4904940120996L952.5900200528175 367.4904940120996Q954.3519621729243 367.4904940120996 954.3519621729243 369.9572129802493L954.3519621729243 369.9572129802493L954.3519621729243 387.1067829492904Q954.4694249809316 387.7234626913278 955.1448361269726 387.7234626913278Q955.7908815710117 387.7234626913278 958.5512575591794 386.28454329324046Q961.2822678453451 384.8162581931513 965.7164888476143 382.2027107149927Q970.1507098498834 379.5597975348322 977.4334039463255 376.0652789966201Q984.7160980427676 372.5413947564062 992.8503974972615 372.5413947564062L992.8503974972615 372.5413947564062Q1005.9768662920584 372.5413947564062 1011.6444467784023 383.78845862308896L1011.6444467784023 383.78845862308896Q1013.8175087265341 388.34014243336526 1015.5794508466412 387.66473128732423Q1017.3413929667481 386.98932014128326 1021.0414714189727 385.13928091517096L1021.0414714189727 385.13928091517096Q1029.8218163175056 380.7931570189071 1038.807721130051 376.68195873865756Q1047.793625942597 372.5413947564062 1053.6667663429535 372.5413947564062L1053.6667663429535 372.5413947564062Q1077.5117163684008 372.5413947564062 1077.5117163684008 416.0026337190445L1077.5117163684008 416.0026337190445L1076.6013796063453 446.1612096748753L1076.6013796063453 452.1518128832389Q1076.6013796063453 460.19801523172737 1084.647581954834 462.6647341998771L1084.647581954834 462.6647341998771Q1088.0540033870407 463.8099965779466 1091.1961335012315 464.27984780997514Q1094.3382636154224 464.72033334000184 1095.336697483483 465.1608188700286Q1096.3057656495416 465.5719386980536 1096.3057656495416 466.80529818212847Q1096.3057656495416 468.03865766620333 1095.2779660794795 468.24421758021583L1095.2779660794795 468.24421758021583L1045.5031011864576 468.24421758021583Q1044.4753016163954 468.03865766620333 1044.4753016163954 466.80529818212847L1044.4753016163954 466.80529818212847Q1044.4753016163954 464.83779614800903 1049.3500081486914 464.10365359796447L1049.3500081486914 464.10365359796447Q1060.3915121013615 462.57663709387174 1060.3915121013615 451.30020752518726L1060.3915121013615 451.30020752518726Q1061.2137517574115 446.1612096748753 1061.2137517574115 435.7363854642424ZM1149.9862689088004 468.24421758021583L1103.9408481700052 468.24421758021583Q1102.9130485999426 468.03865766620333 1102.9130485999426 466.80529818212847L1102.9130485999426 466.80529818212847Q1102.9130485999426 464.92589325401434 1107.758389430237 464.3092135119769L1107.758389430237 464.3092135119769Q1118.9173561909142 462.6647341998771 1118.9173561909142 452.56293271126384L1118.9173561909142 452.56293271126384L1118.9173561909142 397.94272698794816Q1118.9173561909142 393.59660309168436 1114.1601124666254 391.95212377958455L1114.1601124666254 391.95212377958455Q1112.1045133265006 391.21798122954 1109.7258914643562 390.7774956995132Q1107.3472696022118 390.3076444674847 1105.967081608128 389.8965246394597Q1104.5575279120426 389.48540481143476 1104.2051394880214 389.1036506854116Q1103.8527510639997 388.7512622613902 1103.8527510639997 387.5766341813189Q1103.8527510639997 386.3726403992458 1105.4091332700941 385.5504007431959L1105.4091332700941 385.5504007431959L1131.7208022636914 373.1580744984436Q1132.9541617477662 372.5413947564062 1133.2771844697859 372.5413947564062L1133.2771844697859 372.5413947564062Q1135.0097608878914 372.5413947564062 1135.0097608878914 375.0081137245559L1135.0097608878914 375.0081137245559L1135.0097608878914 452.56293271126384Q1135.0097608878914 462.6647341998771 1146.1687276485686 464.3092135119769L1146.1687276485686 464.3092135119769Q1151.0140684788626 464.92589325401434 1151.0140684788626 466.48227546010884Q1151.0140684788626 468.03865766620333 1149.9862689088004 468.24421758021583L1149.9862689088004 468.24421758021583ZM1125.4659077373117 343.528081178645Q1121.1785152450516 343.528081178645 1117.9482880248556 340.85580229648275Q1114.6886951026577 338.15415771231875 1114.6886951026577 333.3675482860282Q1114.6886951026577 328.55157315773585 1117.772093812845 325.7618314675664Q1120.884858225034 323.0014554793989 1125.172250717294 323.0014554793989Q1129.459643209554 323.0014554793989 1132.3962134097324 326.29041410359855Q1135.3327836099106 329.6087384298 1135.3327836099106 333.4262796900318Q1135.3327836099106 337.24382095026345 1132.5430419197414 340.3859510644542Q1129.7533002295722 343.528081178645 1125.4659077373117 343.528081178645ZM1234.0309080379025 468.4497774942283L1234.0309080379025 459.17021566166494Q1233.5023254018702 457.408273541558 1232.6800857458202 457.9662218795919Q1231.8578460897702 458.5535359196275 1225.9847056894137 461.51947182180754L1225.9847056894137 461.51947182180754Q1206.662073772241 471.12205637639045 1193.7705305934583 471.12205637639045Q1180.849621712674 471.12205637639045 1175.18204122633 462.8702941138896L1175.18204122633 462.8702941138896Q1173.1264420862049 459.7868954037024 1173.1264420862049 455.23521159342613L1173.1264420862049 455.23521159342613L1173.1264420862049 392.24578079960236Q1172.8034193641856 389.2798448974223 1170.4247975020412 387.1067829492904L1170.4247975020412 387.1067829492904Q1167.2239359838468 384.4051383651264 1163.7881488496382 384.1995784511139Q1160.3229960134277 383.9940185371014 1160.3229960134277 382.08524790698556Q1160.3229960134277 380.1764772768697 1161.9674753255276 379.7653574488447L1161.9674753255276 379.7653574488447L1185.6068654369628 372.9525145844311Q1186.8402249210376 372.5413947564062 1188.0442187031108 372.5413947564062Q1189.218846783182 372.5413947564062 1189.218846783182 374.3033368765132L1189.218846783182 374.3033368765132L1189.218846783182 443.57702789871837Q1189.218846783182 450.8009905911569 1195.6205698195704 454.706628957394Q1202.0222928559592 458.64163302563287 1211.9772658345632 458.64163302563287Q1221.9616045151697 458.64163302563287 1229.890344055651 452.56293271126384L1229.890344055651 452.56293271126384Q1232.3864287258025 450.59543067714446 1234.0309080379025 448.21680881500004L1234.0309080379025 448.21680881500004L1234.0309080379025 392.24578079960236Q1233.7078853158823 389.2798448974223 1231.35862915574 387.1067829492904L1231.35862915574 387.1067829492904Q1228.157767637546 384.4051383651264 1224.6926148013354 384.1995784511139Q1221.2274619651248 383.9940185371014 1221.2274619651248 382.08524790698556Q1221.2274619651248 380.1764772768697 1222.8719412772248 379.7653574488447L1222.8719412772248 379.7653574488447L1246.51133138866 372.9525145844311Q1247.7740565747367 372.5413947564062 1248.948684654808 372.5413947564062Q1250.1233127348792 372.5413947564062 1250.1233127348792 374.596993896531L1250.1233127348792 374.596993896531L1250.1233127348792 447.89378609298046Q1250.651895370911 452.4454699032567 1252.7074945110357 454.41297193737614Q1254.7924593531625 456.3804739714956 1259.4322402694443 456.3804739714956L1259.4322402694443 456.3804739714956L1265.4228434778079 455.9693541434707Q1266.0395232198453 455.9693541434707 1266.0395232198453 457.14398222354197Q1266.0395232198453 458.31861030361324 1264.4831410137508 459.0527528536578L1264.4831410137508 459.0527528536578L1237.0262096420838 470.4172795283477Q1235.792850158009 471.03395927038514 1234.9118790979555 471.03395927038514Q1234.0309080379025 471.03395927038514 1234.0309080379025 468.4497774942283L1234.0309080379025 468.4497774942283ZM1415.5109464089187 435.7363854642424L1415.5109464089187 435.7363854642424L1415.3053864949065 413.9470345789197Q1415.3053864949065 400.6150058701104 1413.0442274407692 395.24108240378416Q1410.7830683866318 389.8965246394597 1407.2591841464182 387.13614865129216Q1403.764665608206 384.4051383651264 1397.8327938038456 384.4051383651264Q1391.871556297484 384.4051383651264 1372.666387188318 393.7140658996915L1372.666387188318 393.7140658996915Q1370.1115711141629 395.24108240378416 1369.9941083061558 396.59190469586616L1369.9941083061558 396.59190469586616L1369.9941083061558 452.1518128832389Q1369.9941083061558 462.57663709387174 1381.153075066833 464.10365359796447L1381.153075066833 464.10365359796447Q1385.9984158971274 464.83779614800903 1385.9984158971274 466.42354405610524Q1385.9984158971274 468.03865766620333 1384.9706163270648 468.24421758021583L1384.9706163270648 468.24421758021583L1338.9251955882696 468.24421758021583Q1337.8973960182075 468.03865766620333 1337.8973960182075 466.80529818212847L1337.8973960182075 466.80529818212847Q1337.8973960182075 464.83779614800903 1342.7427368485014 464.10365359796447L1342.7427368485014 464.10365359796447Q1353.901703609179 462.57663709387174 1353.901703609179 452.1518128832389L1353.901703609179 452.1518128832389L1353.901703609179 400.7324686781175Q1353.901703609179 384.5226011731335 1333.874294843963 384.5226011731335L1333.874294843963 384.5226011731335Q1326.5328693435176 384.5226011731335 1313.5238633567278 393.1854832636594L1313.5238633567278 393.1854832636594Q1310.2349047325283 395.3585452117913 1308.6785225264339 397.2085844379036L1308.6785225264339 397.2085844379036L1308.6785225264339 452.1518128832389Q1308.6785225264339 462.57663709387174 1319.8081235851091 464.10365359796447L1319.8081235851091 464.10365359796447Q1324.682830117405 464.83779614800903 1324.682830117405 466.42354405610524Q1324.682830117405 468.03865766620333 1323.655030547343 468.24421758021583L1323.655030547343 468.24421758021583L1277.6096098085477 468.24421758021583Q1276.5524445364836 468.03865766620333 1276.5524445364836 466.80529818212847L1276.5524445364836 466.80529818212847Q1276.5524445364836 464.83779614800903 1281.4271510687795 464.10365359796447L1281.4271510687795 464.10365359796447Q1292.5567521274552 462.57663709387174 1292.5567521274552 452.3573727972514L1292.5567521274552 452.3573727972514L1292.5567521274552 392.89182624364156Q1292.5567521274552 388.54570234737776 1287.8288741051679 386.9012230352779L1287.8288741051679 386.9012230352779Q1285.7439092630416 386.1670804852333 1283.3652874008972 385.6972292532048Q1281.0160312407543 385.22737802117626 1279.606477544669 384.8162581931513Q1278.226289550585 384.4051383651264 1277.8445354245619 384.052749941105Q1277.4921470005406 383.7003615170836 1277.4921470005406 382.4963677350105Q1277.4921470005406 381.3217396549392 1279.048529206635 380.4994999988893L1279.048529206635 380.4994999988893L1305.3601982002324 368.107173754137Q1306.5935576843071 367.4904940120996 1306.9165804063268 367.4904940120996L1306.9165804063268 367.4904940120996Q1308.6785225264339 367.4904940120996 1308.6785225264339 369.9572129802493L1308.6785225264339 369.9572129802493L1308.6785225264339 387.1067829492904Q1308.766619632439 387.7234626913278 1309.4420307784799 387.7234626913278Q1310.1174419245212 387.7234626913278 1312.848452210687 386.28454329324046Q1315.5794624968526 384.8162581931513 1320.0136834991217 382.2027107149927Q1324.477270203393 379.5597975348322 1331.7599642998348 376.0652789966201Q1339.0132926942752 372.5413947564062 1347.1769578507706 372.5413947564062L1347.1769578507706 372.5413947564062Q1360.3034266455675 372.5413947564062 1365.9710071319114 383.78845862308896L1365.9710071319114 383.78845862308896Q1368.1440690800437 388.34014243336526 1369.9060112001503 387.66473128732423Q1371.6385876182558 386.98932014128326 1375.368031772482 385.13928091517096L1375.368031772482 385.13928091517096Q1384.1483766710153 380.7931570189071 1393.1342814835607 376.68195873865756Q1402.0908205941041 372.5413947564062 1407.9933266964626 372.5413947564062L1407.9933266964626 372.5413947564062Q1431.83827672191 372.5413947564062 1431.83827672191 416.0026337190445L1431.83827672191 416.0026337190445L1430.898574257853 446.1612096748753L1430.898574257853 452.1518128832389Q1430.898574257853 460.19801523172737 1438.9447766063413 462.6647341998771L1438.9447766063413 462.6647341998771Q1442.3805637405499 463.8099965779466 1445.5226938547407 464.27984780997514Q1448.6648239689316 464.72033334000184 1449.6338921349902 465.1608188700286Q1450.6323260030508 465.5719386980536 1450.6323260030508 466.80529818212847Q1450.6323260030508 468.03865766620333 1449.6045264329882 468.24421758021583L1449.6045264329882 468.24421758021583L1399.8296615399668 468.24421758021583Q1398.8018619699046 468.03865766620333 1398.8018619699046 466.80529818212847L1398.8018619699046 466.80529818212847Q1398.8018619699046 464.83779614800903 1403.6472028001986 464.10365359796447L1403.6472028001986 464.10365359796447Q1414.6887067528692 462.57663709387174 1414.6887067528692 451.30020752518726L1414.6887067528692 451.30020752518726Q1415.5109464089187 446.1612096748753 1415.5109464089187 435.7363854642424Z " fill="#64ffda" transform="matrix(0.6031851961043923,0,0,0.6031851961043923,0,61.06501670733911)"/></g></svg>